<?xml version="1.0" standalone="no"?>
<!DOCTYPE svg PUBLIC "-//W3C//DTD SVG 20010904//EN"
 "http://www.w3.org/TR/2001/REC-SVG-20010904/DTD/svg10.dtd">
<svg version="1.0" xmlns="http://www.w3.org/2000/svg"
 width="312.000000pt" height="312.000000pt" viewBox="0 0 312.000000 312.000000"
 preserveAspectRatio="xMidYMid meet">
<metadata>
Created by potrace 1.11, written by Peter Selinger 2001-2013
</metadata>
<g transform="translate(0.000000,312.000000) scale(0.100000,-0.100000)"
fill="#000000" stroke="none">
<path d="M1371 3110 c-345 -44 -661 -199 -912 -450 -224 -223 -362 -481 -430
-800 -33 -152 -33 -448 0 -600 68 -319 206 -577 430 -801 224 -224 482 -362
801 -430 152 -33 448 -33 600 0 319 68 577 206 801 430 224 224 362 482 430
801 19 88 23 136 23 300 0 164 -4 212 -23 300 -68 319 -206 577 -430 801 -225
224 -488 365 -801 429 -120 25 -369 35 -489 20z m980 -487 c39 -23 75 -76 99
-146 35 -99 50 -93 -187 -88 -119 2 -240 -1 -283 -8 -41 -6 -115 -16 -163 -22
-52 -7 -94 -17 -103 -26 -34 -34 -278 -566 -262 -572 6 -2 59 2 117 10 58 7
144 13 191 13 73 1 91 -3 129 -24 28 -16 52 -39 64 -64 25 -47 33 -130 18
-170 -10 -24 -15 -27 -39 -22 -69 15 -189 18 -274 7 -96 -12 -285 -40 -326
-47 -27 -5 -47 -46 -145 -299 -92 -238 -173 -510 -158 -533 6 -8 34 -4 196 28
175 34 514 77 659 82 l69 3 30 -60 c27 -52 30 -71 31 -148 l1 -89 -254 2
c-238 1 -410 -8 -561 -30 -36 -5 -115 -17 -176 -26 -61 -9 -122 -14 -136 -11
-56 14 -182 140 -228 227 -5 10 12 60 50 147 84 191 280 683 280 703 0 4 -12
11 -26 14 -33 9 -124 99 -124 124 0 23 28 37 144 68 49 13 93 27 96 31 13 15
118 318 148 428 50 180 50 169 -3 183 -63 17 -110 50 -136 95 -17 31 -20 51
-17 102 6 92 6 92 140 82 150 -11 559 9 863 42 144 15 244 13 276 -6z"/>
</g>
</svg>
