<svg width="17" height="13" viewBox="0 0 17 13" fill="none" xmlns="http://www.w3.org/2000/svg">
<path d="M5.86009 13C5.72297 12.9996 5.58741 12.9709 5.46183 12.9159C5.33624 12.8608 5.22333 12.7805 5.13009 12.68L0.270086 7.51C0.0884125 7.31639 -0.00890928 7.05855 -0.000470147 6.79318C0.00796899 6.52782 0.121478 6.27668 0.315086 6.095C0.508694 5.91333 0.766542 5.81601 1.03191 5.82445C1.29727 5.83288 1.54841 5.94639 1.73009 6.14L5.85009 10.53L14.2601 1.33C14.3454 1.22372 14.4516 1.13602 14.5721 1.07227C14.6926 1.00851 14.8248 0.970066 14.9607 0.959281C15.0966 0.948497 15.2332 0.965604 15.3622 1.00955C15.4912 1.0535 15.6099 1.12336 15.711 1.21485C15.812 1.30633 15.8933 1.41751 15.9498 1.54154C16.0063 1.66558 16.0369 1.79986 16.0396 1.93614C16.0423 2.07242 16.0172 2.20781 15.9657 2.33401C15.9141 2.46021 15.8374 2.57455 15.7401 2.67L6.60009 12.67C6.50773 12.7724 6.3952 12.8545 6.26958 12.9113C6.14395 12.9681 6.00794 12.9983 5.87009 13H5.86009Z" fill="#1F1B9D"/>
</svg>
