<?xml version="1.0" encoding="utf-8"?>
<!-- Generator: Adobe Illustrator 22.1.0, SVG Export Plug-In . SVG Version: 6.00 Build 0)  -->
<svg version="1.1" id="Слой_1" xmlns="http://www.w3.org/2000/svg" xmlns:xlink="http://www.w3.org/1999/xlink" x="0px" y="0px"
	 viewBox="50.621490478515625 162.89999389648438 183.57850646972656 234.65731811523438" style="enable-background:new 50.621490478515625 162.89999389648438 183.57850646972656 234.65731811523438;" xml:space="preserve">
<style type="text/css">
	.st0{fill:#213C7F;stroke:#213C7F;stroke-miterlimit:10;}
	.st1{fill:#213C7F;}
	.st2{fill:none;stroke:#213C7F;stroke-width:0.5;stroke-miterlimit:10;}
	.st3{fill:#213C7F;stroke:#213C7F;stroke-width:0.5;stroke-miterlimit:10;}
	.st4{font-family:'MyriadPro-Regular';}
	.st5{font-size:7.4901px;}
	.st6{fill:#DB7631;}
</style>
<path class="st0" d="M51.6,162.9v175.3h113.3c0,0-0.1-0.1-0.1-0.1c-12.4-16-14.8-37.3-14.6-56.9c0.1-12.9,2.2-25,5.7-37.4
	c3-10.6,8-21.5,8.9-31.9c0.1-1.4-1.3-2.5-2.6-2c-9.2,3.4-17.4,10.5-24.1,17c-8.9,8.6-17.5,18.7-22.9,29.9c-1.7,3.6-7.4,2.2-6.9-1.9
	c2-14.1,6.6-27.7,8.2-41.9c0.4-3.8,0.8-7.6,0.1-11.4c-0.1-0.6-0.3-1.2-0.4-1.7c-0.2-0.8-0.3-0.9-0.8-1.2c-3.1-1.4-6.8,1.8-9,3.7
	c-2.7,2.4-5.3,5.3-7,8.5c-2.1,4.1-8.7,1.3-6.6-2.8c3.6-6.9,10.3-14.5,18.1-16.5c15.5-4,13.5,16.8,12.3,25.8
	c-0.9,6.7-2.5,13.3-4,19.9c4.5-5.8,9.5-11.1,14.7-16.1c9.5-9.1,21.4-18.6,34.9-20.2c2.3-0.3,4.2,1.7,4,4c0,12.9-6.3,27.8-10.3,41.6
	c-5.9,20.7-7.4,43.4-2.3,64.6c2.1,8.7,5.8,17.1,11.5,24c0.9,1.1,1.8,2.1,2.8,3.1h52.5V162.9H51.6z"/>
<g>
	<g>
		<g>
			<path class="st1" d="M50.9,350.7c0,11.4-0.2,22.9-0.1,34.3c0,2.9-0.6,6.8,0.4,9.5c1.6,4.6,9.8,2.7,13.6,2.5c3.9-0.1,3.9-6.1,0-6
				c-1,0-8.6-0.3-8.8,0.1c0,0.1,1.1,4.2,0.9,0.5c-0.2-3.8-0.1-7.7-0.1-11.5c0-9.8,0.1-19.6,0.1-29.4
				C56.9,346.8,50.9,346.8,50.9,350.7L50.9,350.7z"/>
		</g>
	</g>
	<g>
		<g>
			<path class="st1" d="M55.4,371.1c3.3-1.7,6.9-3,10.3-4.6c3.5-1.6,0.5-6.8-3-5.2c-3.4,1.6-7,2.9-10.3,4.6
				C48.9,367.7,52,372.9,55.4,371.1L55.4,371.1z"/>
		</g>
	</g>
	<g>
		<g>
			<path class="st1" d="M53.9,353.3c3.4,0,6.9,0,10.3,0c3.9,0,3.9-6,0-6c-3.4,0-6.9,0-10.3,0C50,347.3,50,353.3,53.9,353.3
				L53.9,353.3z"/>
		</g>
	</g>
	<g>
		<g>
			<path class="st1" d="M83.5,354.1c3.7,0,7.4,0,11.1,0c3.9,0,3.9-6,0-6c-3.7,0-7.4,0-11.1,0C79.7,348.1,79.7,354.1,83.5,354.1
				L83.5,354.1z"/>
		</g>
	</g>
	<g>
		<g>
			<path class="st1" d="M86.5,352.4c-0.6,13.9-0.3,27.7-0.7,41.6c-0.1,3.9,5.9,3.9,6,0c0.4-13.9,0.1-27.7,0.7-41.6
				C92.6,348.6,86.6,348.6,86.5,352.4L86.5,352.4z"/>
		</g>
	</g>
	<g>
		<g>
			<path class="st1" d="M111.9,395.1c3.6-14.5,7.7-28.8,11.3-43.3c-1.9,0-3.9,0-5.8,0c3.8,14.5,7.9,28.9,11.7,43.3
				c1,3.7,6.8,2.1,5.8-1.6c-3.8-14.5-7.9-28.9-11.7-43.3c-0.7-2.8-5.1-2.9-5.8,0c-3.6,14.5-7.7,28.8-11.3,43.3
				C105.2,397.2,111,398.8,111.9,395.1L111.9,395.1z"/>
		</g>
	</g>
	<g>
		<g>
			<path class="st1" d="M156.4,348.2c-9.4,5.5-12.6,14.9-13,25.2c-0.4,10.4,3.7,18.4,13,23.3c3.4,1.8,6.5-3.4,3-5.2
				c-7.5-3.9-10.4-9.7-10.1-18.1c0.3-8.2,2.5-15.6,10.1-20C162.8,351.4,159.8,346.2,156.4,348.2L156.4,348.2z"/>
		</g>
	</g>
	<g>
		<g>
			<path class="st1" d="M174.4,395c4.4-14.3,6.4-29.1,10.4-43.5c-1.9,0-3.9,0-5.8,0c3.5,14.6,6.7,29.2,11.5,43.5
				c1.2,3.6,7,2.1,5.8-1.6c-4.7-14.2-7.9-28.9-11.5-43.5c-0.7-2.9-5-2.8-5.8,0c-4,14.4-6,29.2-10.4,43.5
				C167.5,397.1,173.3,398.7,174.4,395L174.4,395z"/>
		</g>
	</g>
	<g>
		<g>
			<path class="st1" d="M213.8,394.3c-0.1-3.9-0.1-7.9,0-11.8c0-2,0.3-4,0.2-5.9c0-0.7,0.1-1.3,0.1-2c-0.6,0.8-0.4,1,0.3,0.5
				c4.4-2.5,7.3-4.6,9.3-9.5c1.8-4.4,1.9-9.6-1.2-13.5c-3.4-4.3-8.9-4.4-13.9-3.8c-3.8,0.5-3.8,6.5,0,6c2.1-0.3,4.7-0.8,6.8-0.1
				c3.8,1.3,4.1,5.1,3.1,8.3c-0.7,2.3-2.3,4.9-4.4,6.2c-1.3,0.8-3.1,0.8-4.2,1.8c-2.2,1.9-1.8,5.4-1.9,7.9
				c-0.2,5.2-0.2,10.5-0.1,15.7C207.9,398.1,213.9,398.1,213.8,394.3L213.8,394.3z"/>
		</g>
	</g>
	<g>
		<g>
			<path class="st1" d="M209.8,374.2c5.2,7.1,10.1,14.5,15.2,21.6c2.2,3.1,7.5,0.1,5.2-3c-5.2-7.1-10-14.5-15.2-21.6
				C212.7,368.1,207.5,371.1,209.8,374.2L209.8,374.2z"/>
		</g>
	</g>
</g>
<g>
	<circle class="st2" cx="230" cy="347.7" r="4.2"/>
	<text transform="matrix(1 0 0 1 227.9405 350.1315)" class="st3 st4 st5">R</text>
</g>
<g>
	<path class="st6" d="M87.9,212.2c1.6-3.9,2.5-7,2.9-11.2c0.9,2.7,3.1,9,3.4,9.3c0.5,0.4,1.3,0.3,1.9,0.2c3.7-0.8,7.5-1.6,11.2-2.3
		c-1.6,1.9-8.7,6.1-9.2,7.6c-0.3,1,1.9,9.2,2.7,12.4c1.4,1.1-7.1-4.5-8.8-6.5c-2.7,2.1-6.1,5.8-8.8,8c1.2-2.9,3-10.9,2.9-11.4
		c-0.1-0.7-7.2-3.3-9.3-4.6C79.6,213.3,83,212.1,87.9,212.2"/>
</g>
</svg>
