<svg id="Слой_2" data-name="Слой 2" xmlns="http://www.w3.org/2000/svg" viewBox="0 0 214.8 146.06">
  <title>car1</title>
  <path d="M437.76,300.65l-42.31-13.57c-6.68-2.28-12.12-7.51-12.12-13.73L382.41,233c-.14-6.23,1.2-8.76,7.44-8.06l46.37,15c6.38,2.5,9.13,7.78,9.13,14l.67,39.68C446,299.81,443.86,302.19,437.76,300.65Z" transform="translate(-313.54 -224.8)" fill="#333746"/>
  <path d="M423.87,307.58,381.56,294c-6.68-2.27-12.11-7.5-12.11-13.72l-.93-40.38c-.14-6.23,1.2-8.77,7.44-8.07l46.37,15c6.38,2.5,9.13,7.78,9.13,14l.67,39.68C432.13,306.75,430,309.12,423.87,307.58Z" transform="translate(-313.54 -224.8)" fill="#3eb5f1"/>
  <path d="M396.66,265.62c-1.64,1.7-1.69,2.67-2.2,2.54-.75-.2,0-13-.67-18.48a10.62,10.62,0,0,0-.6-2.07,1.71,1.71,0,0,0-2.2-.87,3.26,3.26,0,0,0-1.4,1.2,4.24,4.24,0,0,0-.47,1,7.47,7.47,0,0,0-.26,2.67c0,.87,0,1.74,0,2.6.06,1.45-.09,3.61-.06,9.08,0,.43-.07,5.77.06,8.33,0,.34.19,1.36.53,3.41a4.07,4.07,0,0,0,.73,1.93,2.57,2.57,0,0,0,1.14.87,2,2,0,0,0,.93.13,2.15,2.15,0,0,0,1.14-.53,22.33,22.33,0,0,0,2.93-3.2c1.36-1.53,1.16-1.09,2.87-3.21.53-.65.27-.37,2.67-3.66,2.51-3.44,2.39-3.2,2.53-3.47.34-.66.71-1.52,1.07-1.47s.42.6.47.8c.76,3.12.08,22.25.13,21.88-.15.16-.22,1.06-.6,1.2-1.17.44-2.14-.14-5-1.27-1.62-.63-2.14-.7-2.6-.46a2.54,2.54,0,0,0-1.07,1.73,3.35,3.35,0,0,0,.2,2.07c.49,1,1.46,1.19,3.53,1.93,2.3.82,4.58,1.66,6.88,2.47a3.44,3.44,0,0,0,2.53.2,3.28,3.28,0,0,0,1.47-1.47c.4-.76.37-1.89.47-4.4.39-10.54-1.21-33.22-1.21-33.22h0a4.83,4.83,0,0,0-1.66-1.6c-1.13-.44-2.56.71-3,1.07" transform="translate(-313.54 -224.8)" fill="#fff"/>
  <path d="M453.08,359a21.71,21.71,0,1,1-1.63-28.9,22.45,22.45,0,0,1,2.07,2.39c.14.19,3.05-1.45,2.34-2.36a25,25,0,1,0-.2,30.93c.24-.31-.56-1.24-1.07-1.53S453.2,358.86,453.08,359Z" transform="translate(-313.54 -224.8)" fill="#333746"/>
  <path d="M495.82,332.5c-.81,0-1.47,1.27-1.47,2.08v7.8a18.38,18.38,0,1,0,0,18.2v7.84c0,.81.66,2.06,1.47,2.06h1v-38Zm-15.35,34.8a16,16,0,1,1,13.75-13.75A16,16,0,0,1,480.47,367.3Z" transform="translate(-313.54 -224.8)" fill="#333746" stroke="#333745" stroke-miterlimit="10" stroke-width="0.75"/>
  <path d="M403.82,332.5c-.81,0-1.46,1.24-1.46,2.05v7.83a18.38,18.38,0,1,0,0,18.2v7.83c0,.81.65,2.07,1.46,2.07h1v-38ZM386.4,367.43a15.95,15.95,0,1,1,16-15.95A15.95,15.95,0,0,1,386.4,367.43Z" transform="translate(-313.54 -224.8)" fill="#3eb5f1" stroke="#3eb5f1" stroke-miterlimit="10" stroke-width="0.75"/>
  <path d="M367.88,333.65h-7.27V322.78a1.21,1.21,0,0,0-1.2-1.21h-.34a1.21,1.21,0,0,0-1.21,1.21v10.87h-7.27a1.38,1.38,0,0,0,0,2.75h7.27v32.87a1.21,1.21,0,0,0,1.21,1.21h.34a1.21,1.21,0,0,0,1.2-1.21V336.4h7.27a1.38,1.38,0,1,0,0-2.75Z" transform="translate(-313.54 -224.8)" fill="#3eb5f1" stroke="#3eb5f1" stroke-miterlimit="10" stroke-width="0.75"/>
  <path d="M346.48,323.66a1.21,1.21,0,0,0,1.21-1.2v-.34a1.21,1.21,0,0,0-1.21-1.21H313.92v49.57h32.56a1.21,1.21,0,0,0,1.21-1.21v-.33a1.21,1.21,0,0,0-1.21-1.21H316.67v-18.2h25a1.2,1.2,0,0,0,1.2-1.2V348a1.21,1.21,0,0,0-1.2-1.21h-25V323.66Z" transform="translate(-313.54 -224.8)" fill="#3eb5f1" stroke="#3eb5f1" stroke-miterlimit="10" stroke-width="0.75"/>
  <path d="M526.93,333.25a15.32,15.32,0,0,0-5.12-.75c-6.15,0-11.49,3.93-15,9.28v-7.21c0-.81-.66-2.07-1.47-2.07h-1v38h1c.81,0,1.47-1.25,1.47-2.06v-20c3.2-7.71,9.27-12.74,14.25-12.74a16.13,16.13,0,0,1,4.92.62,1.6,1.6,0,0,0,1.89-.92A1.58,1.58,0,0,0,526.93,333.25Z" transform="translate(-313.54 -224.8)" fill="#333746" stroke="#333745" stroke-miterlimit="10" stroke-width="0.75"/>
</svg>
